#N canvas 182 22 1245 720 10;
#X obj 164 125 d-smooth~;
#X obj 698 470 d-out~;
#X obj 163 -60 vsl 15 128 0 2048 0 0 empty empty empty 0 -9 0 10 -262144
-1 -1 62 1;
#X obj 207 158 *~ 0.5;
#X obj 231 234 *~;
#X obj 294 168 *~ 2;
#X floatatom 102 93 5 0 0 0 - - -;
#X obj 704 431 *~ 1;
#X obj 1034 166 noise~;
#X obj 678 -142 r basefreq;
#X obj 272 112 s basefreq;
#X obj 615 268 *~ 500;
#X obj 777 13 metro;
#X msg 778 -11 1;
#X obj 754 -35 * 1000;
#X obj 717 -67 d-inv;
#X obj 764 94 d-random;
#X obj 764 125 d-sq;
#X obj 767 -68 * 1;
#X obj 747 405 lop~;
#X obj 720 296 r~ noisey;
#X obj 1016 322 s~ noisey;
#X obj 877 21 f 0;
#X obj 905 22 + 1;
#X obj 934 22 % 4;
#X obj 878 58 sel 0 1 2 3;
#X obj 1030 225 lop~ 500;
#X obj 85 245 osc~;
#X obj 663 -4 * 1;
#X obj 570 49 phasor~;
#X obj 120 322 loadbang;
#X obj 681 154 r basefreq;
#X obj 1105 169 r basefreq;
#X floatatom 701 241 5 0 0 0 - - -;
#X floatatom 670 215 5 0 0 0 - - -;
#X msg 841 109 1000;
#X msg 873 106 800;
#X msg 898 105 1000;
#X msg 946 105 600;
#X msg 990 102 400;
#X msg 1026 103 500;
#X msg 1070 104 200;
#X msg 1101 105 300;
#X obj 764 252 d-map 0 1 500 400;
#X obj 1026 199 *~;
#X obj 227 306 *~ 0.1;
#X obj 678 -114 spigot;
#X msg 790 -131 1;
#X msg 831 -128 0;
#X obj 678 -92 t f b f b;
#X obj 906 -141 loadbang;
#X obj 857 -79 del;
#X obj 240 -109 tgl 15 0 empty empty empty 17 7 0 10 -262144 -1 -1
0 1;
#N canvas 21 259 450 300 basefreq-control 0;
#X obj 105 74 f;
#X floatatom 174 21 5 0 0 0 - - -;
#X obj 129 -117 loadbang;
#X msg 102 -52 bang;
#X obj 105 3 metro 50;
#X obj 278 -73 sel 0 1;
#X obj 106 152 outlet;
#X obj 278 -105 inlet;
#X text 324 -103 accelerator;
#X text 168 -51 idle;
#X obj 297 -47 t b b;
#X obj 246 -45 t b b;
#X obj 105 103 d-lpf-redo 0.95;
#X msg 274 59 0.95;
#X msg 324 64 0.9;
#X msg 179 -12 10;
#X msg 297 -16 200;
#X connect 0 0 12 0;
#X connect 1 0 0 0;
#X connect 2 0 15 0;
#X connect 2 0 3 0;
#X connect 3 0 4 0;
#X connect 4 0 0 0;
#X connect 5 0 11 0;
#X connect 5 1 10 0;
#X connect 7 0 5 0;
#X connect 10 0 16 0;
#X connect 10 1 14 0;
#X connect 11 0 15 0;
#X connect 11 1 13 0;
#X connect 12 0 6 0;
#X connect 13 0 12 1;
#X connect 14 0 12 1;
#X connect 15 0 1 0;
#X connect 16 0 1 0;
#X restore 239 -77 pd basefreq-control;
#X floatatom 794 280 5 0 0 0 - - -;
#X msg 122 361 \; cylshot-rev read cylshot-rev.txt;
#X obj 332 376 table cylshot-rev 1024;
#X obj 332 403 table cylshot-idle 1024;
#X msg 331 516 \; cylshot-idle write cylshot-idle.txt;
#X msg 317 491 \; cylshot-rev write cylshot-rev.txt;
#X msg 378 294 \; cylshot-rev const 0;
#X msg 376 326 \; cylshot-idle const 0;
#X obj 574 160 *~;
#X msg 127 398 \; cylshot-idle read cylshot-idle.txt;
#X obj 399 11 r basefreq;
#X obj 413 158 *~;
#X obj 455 213 d-crossfade~;
#X obj 244 -9 d-pan~;
#X obj 573 116 tabread4~ cylshot-rev;
#X obj 413 114 tabread4~ cylshot-idle;
#X floatatom 1094 229 5 0 0 0 - - -;
#X floatatom 400 82 5 0 0 0 - - -;
#X obj 397 41 d-map 0 256 0 1;
#X obj 705 215 d-map 0 256 0.65 0.85;
#X obj 672 190 d-map 0 256 0.35 0.15;
#X obj 618 297 +~ 200;
#X obj 573 227 d-map 0 256 50 200;
#X obj 570 196 r basefreq;
#X obj 169 99 * 0.125;
#X obj 161 249 *~;
#X obj 151 196 osc~;
#X obj 216 194 osc~;
#X obj 303 205 phasor~;
#X obj 1002 275 hip~ 30;
#X floatatom 667 297 5 0 0 0 - - -;
#X obj 1080 197 d-map 0 256 200 1000;
#X obj 695 374 svf~ 200 0.7;
#X obj 628 -121 * 1;
#X obj 573 74 *~ 1024;
#X msg 713 20 0;
#N canvas 22 22 738 557 gen-filter-freq 1;
#X obj 23 20 r basefreq;
#X obj 29 54 f;
#X obj 29 189 phasor~;
#X obj 190 301 *~;
#X obj 29 299 *~;
#X obj 29 355 d-crossfade~;
#X obj 189 257 tabread4~ cylshot-rev;
#X obj 29 255 tabread4~ cylshot-idle;
#X obj 29 213 *~ 1024;
#X obj 72 427 *~ 500;
#X obj 73 515 outlet~;
#X obj 397 81 d-inv;
#X obj 397 102 * 1000;
#X obj 397 126 del;
#X obj 397 180 d-random;
#X obj 397 214 d-sq;
#X obj 397 253 d-map 0 1 500 400;
#X obj 73 477 +~ 200;
#X obj 153 447 d-map 0 256 50 200;
#X obj 153 416 r basefreq;
#X obj 69 281 r basefreq;
#X floatatom 116 355 5 0 0 0 - - -;
#X obj 69 311 d-map 0 256 0 1;
#X connect 0 0 1 1;
#X connect 1 0 2 0;
#X connect 1 0 11 0;
#X connect 2 0 8 0;
#X connect 3 0 5 1;
#X connect 4 0 5 0;
#X connect 5 0 9 0;
#X connect 6 0 3 0;
#X connect 6 0 3 1;
#X connect 7 0 4 0;
#X connect 7 0 4 1;
#X connect 8 0 6 0;
#X connect 8 0 7 0;
#X connect 9 0 17 0;
#X connect 11 0 12 0;
#X connect 12 0 13 0;
#X connect 13 0 1 0;
#X connect 13 0 14 0;
#X connect 14 0 15 0;
#X connect 15 0 16 0;
#X connect 16 0 9 1;
#X connect 17 0 10 0;
#X connect 18 0 17 1;
#X connect 19 0 18 0;
#X connect 20 0 22 0;
#X connect 22 0 21 0;
#X connect 22 0 5 2;
#X restore 729 332 pd gen-filter-freq;
#X connect 0 0 3 0;
#X connect 0 0 5 0;
#X connect 0 0 80 0;
#X connect 2 0 6 0;
#X connect 2 0 10 0;
#X connect 2 0 78 0;
#X connect 3 0 81 0;
#X connect 4 0 79 1;
#X connect 5 0 82 0;
#X connect 7 0 1 0;
#X connect 7 0 1 1;
#X connect 8 0 44 0;
#X connect 8 0 44 1;
#X connect 9 0 87 0;
#X connect 11 0 75 0;
#X connect 12 0 16 0;
#X connect 12 0 22 0;
#X connect 13 0 12 0;
#X connect 14 0 12 1;
#X connect 14 0 51 0;
#X connect 15 0 18 0;
#X connect 16 0 17 0;
#X connect 17 0 43 0;
#X connect 18 0 14 0;
#X connect 20 0 86 0;
#X connect 22 0 23 0;
#X connect 22 0 25 0;
#X connect 23 0 24 0;
#X connect 24 0 22 1;
#X connect 25 0 36 0;
#X connect 25 0 35 0;
#X connect 25 1 38 0;
#X connect 25 1 37 0;
#X connect 25 2 39 0;
#X connect 25 2 40 0;
#X connect 25 3 41 0;
#X connect 25 3 42 0;
#X connect 26 0 83 0;
#X connect 28 0 29 0;
#X connect 29 0 88 0;
#X connect 30 0 55 0;
#X connect 31 0 73 0;
#X connect 31 0 74 0;
#X connect 32 0 85 0;
#X connect 35 0 43 3;
#X connect 36 0 43 4;
#X connect 37 0 43 3;
#X connect 38 0 43 4;
#X connect 39 0 43 3;
#X connect 40 0 43 4;
#X connect 41 0 43 3;
#X connect 42 0 43 4;
#X connect 43 0 11 1;
#X connect 43 0 54 0;
#X connect 44 0 26 0;
#X connect 44 0 83 0;
#X connect 46 0 49 0;
#X connect 47 0 46 1;
#X connect 48 0 46 1;
#X connect 49 0 28 0;
#X connect 49 1 13 0;
#X connect 49 2 15 0;
#X connect 49 3 48 0;
#X connect 50 0 47 0;
#X connect 51 0 47 0;
#X connect 51 0 89 0;
#X connect 52 0 53 0;
#X connect 53 0 2 0;
#X connect 62 0 66 1;
#X connect 64 0 72 0;
#X connect 65 0 66 0;
#X connect 66 0 11 0;
#X connect 68 0 62 0;
#X connect 68 0 62 1;
#X connect 69 0 65 0;
#X connect 69 0 65 1;
#X connect 72 0 66 2;
#X connect 72 0 71 0;
#X connect 73 0 33 0;
#X connect 73 0 43 2;
#X connect 74 0 34 0;
#X connect 74 0 43 1;
#X connect 76 0 75 1;
#X connect 76 0 84 0;
#X connect 77 0 76 0;
#X connect 78 0 0 0;
#X connect 79 0 45 0;
#X connect 80 0 79 0;
#X connect 81 0 4 0;
#X connect 82 0 4 1;
#X connect 83 0 21 0;
#X connect 85 0 26 1;
#X connect 85 0 70 0;
#X connect 86 0 7 0;
#X connect 86 2 7 0;
#X connect 87 0 46 0;
#X connect 88 0 68 0;
#X connect 88 0 69 0;
#X connect 89 0 29 1;
#X connect 90 0 86 1;
