#N canvas 383 39 1245 720 10;
#X obj 413 539 dac~;
#X obj 163 110 vsl 15 128 0 2048 0 0 empty empty empty 0 -9 0 10 -262144
-1 -1 61 1;
#X obj 476 170 noise~;
#X obj 240 108 s basefreq;
#X obj 468 203 *~;
#X obj 59 -43 tgl 45 0 empty empty empty 17 7 0 10 -258113 -1 -1 0
1;
#N canvas 42 273 572 408 basefreq-control 1;
#X obj 105 74 f;
#X floatatom 174 21 5 0 0 0 - - -;
#X obj 129 -117 loadbang;
#X msg 102 -52 bang;
#X obj 105 3 metro 50;
#X obj 278 -73 sel 0 1;
#X obj 105 203 outlet;
#X obj 278 -105 inlet;
#X text 324 -103 accelerator;
#X text 168 -51 idle;
#X obj 297 -47 t b b;
#X obj 105 103 d-lpf-redo 0.95;
#X msg 274 59 0.95;
#X obj 313 188 d-delta;
#X obj 313 222 outlet;
#X obj 105 144 d-jitter 0.2;
#X obj 246 -45 t b b;
#X obj 424 -91 inlet;
#X obj 303 -10 f 200;
#X msg 179 -12 10.3;
#X msg 324 64 0.95;
#X connect 0 0 11 0;
#X connect 1 0 0 0;
#X connect 2 0 19 0;
#X connect 2 0 3 0;
#X connect 3 0 4 0;
#X connect 4 0 0 0;
#X connect 5 0 16 0;
#X connect 5 1 10 0;
#X connect 7 0 5 0;
#X connect 10 0 18 0;
#X connect 10 1 20 0;
#X connect 11 0 15 0;
#X connect 12 0 11 1;
#X connect 13 0 14 0;
#X connect 15 0 6 0;
#X connect 15 0 13 0;
#X connect 16 0 19 0;
#X connect 16 1 12 0;
#X connect 17 0 18 1;
#X connect 18 0 1 0;
#X connect 19 0 1 0;
#X connect 20 0 11 1;
#X restore 229 53 pd basefreq-control;
#N canvas 37 84 1230 684 gen-filter-freq 0;
#X obj 97 20 r basefreq;
#X obj 82 102 f;
#X obj 72 291 phasor~;
#X obj 233 403 *~;
#X obj 72 401 *~;
#X obj 72 457 d-crossfade~;
#X obj 72 497 *~ 500;
#X obj 72 585 outlet~;
#X obj 527 151 d-inv;
#X obj 527 172 * 1000;
#X obj 527 196 del;
#X obj 527 360 d-random;
#X obj 527 394 d-sq;
#X obj 527 433 d-map 0 1 500 400;
#X obj 112 413 d-map 0 256 0 1;
#X obj 82 152 s basefreq-ff;
#X obj 112 383 r basefreq-ff;
#X obj 153 486 r basefreq-ff;
#X obj 651 241 f 0;
#X obj 679 241 + 1;
#X obj 708 241 % 4;
#X obj 651 267 sel 0 1 2 3;
#X obj 396 263 r basefreq-ff;
#X obj 318 22 loadbang;
#X obj 309 589 outlet~;
#X obj 72 194 r basefreq-ff;
#X obj 527 55 r basefreq-ff;
#X obj 538 230 s ff-trig;
#X msg 318 49 1;
#X obj 25 33 r ff-trig;
#X floatatom 189 456 5 0 0 0 - - -;
#X obj 232 359 tabread4~ cylshot-rev;
#X obj 72 357 tabread4~ cylshot-idle;
#X floatatom 470 352 5 0 0 0 - - -;
#X floatatom 385 338 5 0 0 0 - - -;
#X obj 387 299 d-map 0 256 0.35 0.15;
#X obj 471 324 d-map 0 256 0.65 0.85;
#X obj 139 250 sel 1;
#X obj 72 216 t f f;
#X msg 136 277 0;
#X obj 138 224 < 50;
#X obj 72 315 *~ 2048;
#X obj 789 322 loadbang;
#X msg 1047 294 \; cylshot-rev const 0;
#X msg 1045 326 \; cylshot-idle const 0;
#X msg 986 491 \; cylshot-rev write cylshot-rev3.txt;
#X msg 1000 515 \; cylshot-idle write cylshot-idle3.txt;
#X obj 1000 378 table cylshot-rev 2048;
#X obj 1001 403 table cylshot-idle 2048;
#X msg 791 361 \; cylshot-rev read cylshot-rev3.txt;
#X msg 796 398 \; cylshot-idle read cylshot-idle3.txt;
#X obj 580 607 outlet;
#X obj 154 517 d-map 0 256 40 200;
#X obj 72 547 +~ 200;
#X floatatom 135 557 5 0 0 0 - - -;
#X floatatom 526 479 5 0 0 0 - - -;
#X msg 652 386 300;
#X msg 709 387 200;
#X msg 651 328 1000;
#X msg 709 329 600;
#X msg 651 355 300;
#X msg 709 357 500;
#X msg 651 303 1000;
#X msg 709 304 800;
#X connect 0 0 1 1;
#X connect 1 0 15 0;
#X connect 2 0 41 0;
#X connect 3 0 5 1;
#X connect 4 0 5 0;
#X connect 5 0 6 0;
#X connect 5 0 24 0;
#X connect 6 0 53 0;
#X connect 8 0 9 0;
#X connect 9 0 10 0;
#X connect 10 0 11 0;
#X connect 10 0 18 0;
#X connect 10 0 27 0;
#X connect 11 0 12 0;
#X connect 12 0 13 0;
#X connect 13 0 6 1;
#X connect 13 0 55 0;
#X connect 14 0 5 2;
#X connect 14 0 30 0;
#X connect 16 0 14 0;
#X connect 17 0 52 0;
#X connect 18 0 19 0;
#X connect 18 0 21 0;
#X connect 19 0 20 0;
#X connect 20 0 18 1;
#X connect 21 0 63 0;
#X connect 21 0 62 0;
#X connect 21 1 59 0;
#X connect 21 1 58 0;
#X connect 21 2 60 0;
#X connect 21 2 61 0;
#X connect 21 3 57 0;
#X connect 21 3 56 0;
#X connect 22 0 35 0;
#X connect 22 0 36 0;
#X connect 23 0 28 0;
#X connect 25 0 38 0;
#X connect 26 0 8 0;
#X connect 28 0 1 0;
#X connect 29 0 1 0;
#X connect 31 0 3 0;
#X connect 31 0 3 1;
#X connect 32 0 4 0;
#X connect 32 0 4 1;
#X connect 35 0 13 1;
#X connect 35 0 34 0;
#X connect 36 0 13 2;
#X connect 36 0 33 0;
#X connect 37 0 39 0;
#X connect 37 0 51 0;
#X connect 38 0 40 0;
#X connect 38 1 2 0;
#X connect 39 0 2 1;
#X connect 40 0 37 0;
#X connect 41 0 31 0;
#X connect 41 0 32 0;
#X connect 42 0 49 0;
#X connect 42 0 50 0;
#X connect 52 0 53 1;
#X connect 52 0 54 0;
#X connect 53 0 7 0;
#X connect 56 0 13 3;
#X connect 57 0 13 4;
#X connect 58 0 13 3;
#X connect 59 0 13 4;
#X connect 60 0 13 3;
#X connect 61 0 13 4;
#X connect 62 0 13 3;
#X connect 63 0 13 4;
#X restore 496 279 pd gen-filter-freq;
#X obj 462 449 lop~ 500;
#X obj 569 414 r basefreq;
#X obj 462 492 hip~ 50;
#N canvas 72 295 481 408 engine 1;
#X obj 167 86 d-smooth~;
#X obj 269 192 phasor~;
#X obj 165 19 r basefreq;
#X obj 228 351 outlet~;
#X obj 161 249 *~;
#X obj 212 222 *~;
#X msg 277 52 0;
#X obj 272 22 inlet;
#X obj 361 195 r~ noisey;
#X obj 148 196 phasor~;
#X obj 227 315 lop~ 500;
#X obj 211 276 *~;
#X obj 306 245 lop~ 500;
#X obj 165 50 d-jitter 0.1;
#X obj 216 194 osc~;
#X obj 208 158 *~ 1.54;
#X obj 274 157 *~ 1.3;
#X obj 145 139 *~ 0.45;
#X connect 0 0 15 0;
#X connect 0 0 16 0;
#X connect 0 0 17 0;
#X connect 1 0 5 1;
#X connect 2 0 13 0;
#X connect 4 0 11 0;
#X connect 5 0 4 1;
#X connect 6 0 1 1;
#X connect 6 0 9 1;
#X connect 6 0 14 1;
#X connect 7 0 6 0;
#X connect 8 0 12 0;
#X connect 9 0 4 0;
#X connect 10 0 3 0;
#X connect 11 0 10 0;
#X connect 12 0 11 1;
#X connect 13 0 0 0;
#X connect 14 0 5 0;
#X connect 15 0 14 0;
#X connect 16 0 1 0;
#X connect 17 0 9 0;
#X restore 627 301 pd engine;
#X obj 524 246 s~ noisey;
#X obj 462 414 d-crossfade~;
#X obj 781 300 r basefreq;
#X obj 691 330 d-smooth~;
#X obj 691 307 * 192;
#X obj 691 282 r basefreq;
#X obj 627 360 vcf~ 1;
#X text 117 -45 accelerator;
#X floatatom 405 91 5 0 0 0 - - -;
#X obj 340 93 max;
#X obj 340 191 d-lpf 0.9;
#X obj 627 333 *~ 1;
#X obj 462 391 *~ 1;
#X obj 569 441 d-map 0 256 1000 10000;
#X obj 383 119 > 0;
#X obj 383 141 sel 0 1;
#X msg 369 168 0.8;
#X obj 781 322 d-map 0 192 0.2 0.6;
#X obj 462 470 *~ 4;
#X obj 502 -39 vsl 15 128 0 256 0 0 empty empty empty 0 -9 0 10 -262144
-1 -1 9922 1;
#X text 528 -25 acceleration top frequency;
#X obj 534 -69 loadbang;
#X msg 480 -62 200;
#X obj 886 -24 loadbang;
#X obj 889 12 del 100;
#X msg 894 49 \; pd dsp 1;
#X msg 414 167 0.95;
#X obj 730 166 d-biquadcalc-lowpass;
#X obj 638 213 d-biquad~;
#X obj 467 339 moog~;
#X obj 514 343 vcf~;
#X obj 425 335 * 20;
#X obj 387 307 + 1;
#X obj 243 250 vsl 15 128 0 5 0 0 empty empty empty 0 -9 0 10 -262144
-1 -1 291 1;
#X obj 332 219 min 1;
#X obj 367 274 * 2.5;
#X connect 2 0 4 0;
#X connect 2 0 4 1;
#X connect 4 0 12 0;
#X connect 4 0 41 0;
#X connect 4 0 42 0;
#X connect 5 0 21 1;
#X connect 5 0 6 0;
#X connect 6 0 1 0;
#X connect 6 0 3 0;
#X connect 6 1 21 0;
#X connect 7 0 41 1;
#X connect 7 0 42 1;
#X connect 7 2 11 0;
#X connect 8 0 30 0;
#X connect 9 0 25 0;
#X connect 10 0 0 0;
#X connect 10 0 0 1;
#X connect 11 0 23 0;
#X connect 13 0 8 0;
#X connect 14 0 29 0;
#X connect 15 0 18 1;
#X connect 16 0 15 0;
#X connect 17 0 16 0;
#X connect 21 0 20 0;
#X connect 21 0 22 0;
#X connect 21 0 26 0;
#X connect 22 0 46 0;
#X connect 23 0 18 0;
#X connect 24 0 13 0;
#X connect 25 0 8 1;
#X connect 26 0 27 0;
#X connect 27 0 28 0;
#X connect 27 1 38 0;
#X connect 28 0 22 1;
#X connect 29 0 13 2;
#X connect 30 0 10 0;
#X connect 31 0 6 1;
#X connect 33 0 34 0;
#X connect 34 0 31 0;
#X connect 35 0 36 0;
#X connect 36 0 37 0;
#X connect 38 0 22 1;
#X connect 41 0 24 0;
#X connect 42 0 24 0;
#X connect 43 0 42 2;
#X connect 44 0 43 0;
#X connect 44 0 41 2;
#X connect 46 0 45 0;
#X connect 46 0 47 0;
#X connect 47 0 44 0;
