#N canvas 389 22 767 646 10;
#X obj 116 49 d-smooth~;
#X obj 323 387 d-out~;
#X obj 119 -122 vsl 15 128 0 127 0 0 empty empty empty 0 -9 0 10 -262144
-1 -1 3500 1;
#X obj 255 129 osc~;
#X obj 480 45 osc~;
#X obj 476 7 d-smooth~;
#X obj 493 125 *~;
#X obj 401 3 / 8;
#X obj 362 123 noise~;
#X obj 178 202 *~ 1;
#X obj 159 82 *~ 0.5;
#X obj 183 158 *~;
#X obj 337 170 *~ 1;
#X obj 512 99 -~;
#X obj 495 69 sig~ 1;
#X obj 168 118 osc~;
#X obj 113 173 *~;
#X msg 515 -24 0;
#X obj 541 -64 bng 15 250 50 0 empty empty empty 17 7 0 10 -262144
-1 -1;
#X obj 347 323 *~;
#X obj 520 148 *~ 0.5;
#X msg 598 -10 1;
#X obj 547 48 osc~;
#X obj 246 92 *~ 2;
#X obj 103 120 osc~;
#X floatatom 142 17 5 0 0 0 - - -;
#X obj 396 241 +~ 50;
#X obj 341 266 vcf~ 10;
#X obj 340 204 lop~ 100;
#X obj 424 215 *~ 100;
#X obj 525 181 +~ 0.9;
#X obj 514 280 phasor~;
#X obj 592 225;
#X connect 0 0 10 0;
#X connect 0 0 23 0;
#X connect 0 0 24 0;
#X connect 2 0 0 0;
#X connect 2 0 7 0;
#X connect 2 0 25 0;
#X connect 3 0 11 1;
#X connect 4 0 6 0;
#X connect 5 0 4 0;
#X connect 5 0 22 0;
#X connect 6 0 20 0;
#X connect 7 0 5 0;
#X connect 8 0 12 0;
#X connect 10 0 15 0;
#X connect 11 0 16 1;
#X connect 12 0 28 0;
#X connect 13 0 6 1;
#X connect 14 0 13 0;
#X connect 15 0 11 0;
#X connect 16 0 9 0;
#X connect 17 0 4 1;
#X connect 18 0 17 0;
#X connect 18 0 21 0;
#X connect 19 0 1 0;
#X connect 19 0 1 1;
#X connect 20 0 30 0;
#X connect 21 0 22 1;
#X connect 22 0 13 1;
#X connect 23 0 3 0;
#X connect 24 0 16 0;
#X connect 28 0 27 0;
