#N canvas 431 22 1245 720 10;
#X obj 164 125 d-smooth~;
#X obj 698 470 d-out~;
#X obj 163 -60 vsl 15 128 0 512 0 0 empty empty empty 0 -9 0 10 -262144
-1 -1 1604 1;
#X obj 303 205 osc~;
#X obj 207 158 *~ 0.5;
#X obj 231 234 *~;
#X obj 216 194 osc~;
#X obj 294 168 *~ 2;
#X floatatom 102 93 5 0 0 0 - - -;
#X obj 722 407 *~ 1;
#X obj 1034 166 noise~;
#X obj 678 -142 r basefreq;
#X obj 272 112 s basefreq;
#X obj 615 268 *~ 500;
#X obj 777 13 metro;
#X msg 778 -11 1;
#X obj 754 -35 * 1000;
#X obj 717 -67 d-inv;
#X obj 764 94 d-random;
#X obj 764 125 d-sq;
#X obj 767 -68 * 1;
#X obj 765 381 lop~;
#X obj 720 296 r~ noisey;
#X obj 1016 322 s~ noisey;
#X obj 877 21 f 0;
#X obj 905 22 + 1;
#X obj 934 22 % 4;
#X obj 878 58 sel 0 1 2 3;
#X obj 1030 225 lop~ 500;
#X obj 85 245 osc~;
#X obj 663 -4 * 1;
#X obj 570 49 phasor~;
#X obj 573 74 *~ 1024;
#X obj 255 88 / 4;
#X obj 161 249 *~ 1;
#X obj 120 322 loadbang;
#X obj 681 154 r basefreq;
#X obj 1105 169 r basefreq;
#X obj 1080 196 d-map 0 128 500 4000;
#X floatatom 701 241 5 0 0 0 - - -;
#X floatatom 670 215 5 0 0 0 - - -;
#X msg 841 109 1000;
#X msg 873 106 800;
#X msg 898 105 1000;
#X msg 946 105 600;
#X msg 990 102 400;
#X msg 1026 103 500;
#X msg 1070 104 200;
#X msg 1101 105 300;
#X obj 764 252 d-map 0 1 500 400;
#X obj 673 190 d-map 0 128 0.25 0;
#X obj 705 215 d-map 0 128 0.75 1;
#X obj 1026 199 *~;
#X msg 713 20 0;
#X obj 151 196 phasor~;
#X obj 227 306 *~ 0.1;
#X obj 678 -114 spigot;
#X msg 790 -131 1;
#X msg 831 -128 0;
#X obj 678 -92 t f b f b;
#X obj 906 -141 loadbang;
#X obj 857 -79 del;
#X floatatom 911 -105 5 0 0 0 - - -;
#X obj 240 -109 tgl 15 0 empty empty empty 17 7 0 10 -262144 -1 -1
0 1;
#N canvas 21 259 450 300 basefreq-control 0;
#X obj 105 74 f;
#X floatatom 174 21 5 0 0 0 - - -;
#X obj 129 -117 loadbang;
#X msg 102 -52 bang;
#X obj 105 3 metro 50;
#X msg 179 -11 30;
#X obj 278 -73 sel 0 1;
#X obj 106 152 outlet;
#X obj 278 -105 inlet;
#X text 324 -103 accelerator;
#X text 168 -51 idle;
#X obj 297 -47 t b b;
#X obj 246 -45 t b b;
#X msg 297 -16 200;
#X obj 105 103 d-lpf-redo 0.95;
#X msg 274 59 0.95;
#X msg 324 64 0.8;
#X connect 0 0 14 0;
#X connect 1 0 0 0;
#X connect 2 0 5 0;
#X connect 2 0 3 0;
#X connect 3 0 4 0;
#X connect 4 0 0 0;
#X connect 5 0 1 0;
#X connect 6 0 12 0;
#X connect 6 1 11 0;
#X connect 8 0 6 0;
#X connect 11 0 13 0;
#X connect 11 1 16 0;
#X connect 12 0 5 0;
#X connect 12 1 15 0;
#X connect 13 0 1 0;
#X connect 14 0 7 0;
#X connect 15 0 14 1;
#X connect 16 0 14 1;
#X restore 239 -77 pd basefreq-control;
#X obj 1036 277 hip~ 100;
#X floatatom 794 280 5 0 0 0 - - -;
#X obj 618 297 +~ 10;
#X obj 720 345 svf~ 200 0.5;
#X msg 122 361 \; cylshot-rev read cylshot-rev.txt;
#X obj 332 376 table cylshot-rev 1024;
#X obj 332 403 table cylshot-idle 1024;
#X msg 331 516 \; cylshot-idle write cylshot-idle.txt;
#X msg 317 491 \; cylshot-rev write cylshot-rev.txt;
#X msg 378 294 \; cylshot-rev const 0;
#X msg 387 317 \; cylshot-idle const 0;
#X obj 574 160 *~;
#X msg 127 398 \; cylshot-idle read cylshot-idle.txt;
#X obj 559 207 *~;
#X obj 520 159 d-1-~;
#X obj 397 41 d-map 0 256 0 1;
#X obj 399 11 r basefreq;
#X obj 413 158 *~;
#X obj 398 206 *~;
#X obj 398 83 d-smooth~;
#X obj 450 207 d-crossfade~;
#X obj 413 114 tabread4~ cylshot-idle;
#X obj 573 116 tabread4~ cylshot-rev;
#X connect 0 0 4 0;
#X connect 0 0 7 0;
#X connect 0 0 54 0;
#X connect 2 0 8 0;
#X connect 2 0 33 0;
#X connect 3 0 5 1;
#X connect 4 0 6 0;
#X connect 6 0 5 0;
#X connect 7 0 3 0;
#X connect 9 0 1 0;
#X connect 9 0 1 1;
#X connect 10 0 52 0;
#X connect 10 0 52 1;
#X connect 11 0 56 0;
#X connect 13 0 67 0;
#X connect 14 0 18 0;
#X connect 14 0 24 0;
#X connect 15 0 14 0;
#X connect 16 0 14 1;
#X connect 16 0 61 0;
#X connect 17 0 20 0;
#X connect 18 0 19 0;
#X connect 19 0 49 0;
#X connect 20 0 16 0;
#X connect 22 0 68 0;
#X connect 24 0 25 0;
#X connect 24 0 27 0;
#X connect 25 0 26 0;
#X connect 26 0 24 1;
#X connect 27 0 42 0;
#X connect 27 0 41 0;
#X connect 27 1 44 0;
#X connect 27 1 43 0;
#X connect 27 2 45 0;
#X connect 27 2 46 0;
#X connect 27 3 47 0;
#X connect 27 3 48 0;
#X connect 28 0 65 0;
#X connect 30 0 31 0;
#X connect 31 0 32 0;
#X connect 32 0 86 0;
#X connect 32 0 87 0;
#X connect 33 0 12 0;
#X connect 33 0 0 0;
#X connect 34 0 55 0;
#X connect 35 0 69 0;
#X connect 36 0 50 0;
#X connect 36 0 51 0;
#X connect 37 0 38 0;
#X connect 38 0 28 1;
#X connect 41 0 49 3;
#X connect 42 0 49 4;
#X connect 43 0 49 3;
#X connect 44 0 49 4;
#X connect 45 0 49 3;
#X connect 46 0 49 4;
#X connect 47 0 49 3;
#X connect 48 0 49 4;
#X connect 49 0 13 1;
#X connect 49 0 66 0;
#X connect 50 0 40 0;
#X connect 50 0 49 1;
#X connect 51 0 39 0;
#X connect 51 0 49 2;
#X connect 52 0 28 0;
#X connect 53 0 31 1;
#X connect 54 0 34 0;
#X connect 56 0 59 0;
#X connect 57 0 56 1;
#X connect 57 0 62 0;
#X connect 58 0 56 1;
#X connect 58 0 62 0;
#X connect 59 0 30 0;
#X connect 59 1 53 0;
#X connect 59 1 15 0;
#X connect 59 2 17 0;
#X connect 59 3 58 0;
#X connect 60 0 57 0;
#X connect 61 0 57 0;
#X connect 63 0 64 0;
#X connect 64 0 2 0;
#X connect 65 0 23 0;
#X connect 67 0 68 1;
#X connect 68 0 9 0;
#X connect 68 2 9 0;
#X connect 76 0 78 1;
#X connect 79 0 78 0;
#X connect 79 0 85 1;
#X connect 80 0 84 0;
#X connect 80 0 85 2;
#X connect 81 0 80 0;
#X connect 82 0 83 1;
#X connect 82 0 85 0;
#X connect 84 0 79 0;
#X connect 84 0 83 0;
#X connect 85 0 13 0;
#X connect 86 0 82 0;
#X connect 86 0 82 1;
#X connect 87 0 76 0;
#X connect 87 0 76 1;
